<?xml version="1.0" encoding="UTF-8" standalone="no"?>
<svg xmlns="http://www.w3.org/2000/svg" viewBox="0 0 100 100">
  <g transform="translate(50, 50)">
    <path d="M0,-40 C-15,-40 -30,-25 -30,-10 C-30,20 0,40 0,40 C0,40 30,20 30,-10 C30,-25 15,-40 0,-40 Z" fill="orange" />
    <g transform="translate(0, -10)">
      <path d="M-7,-12 L-7,8" stroke="white" stroke-width="2" stroke-linecap="round" />
      <path d="M-10,-12 L-10,-5 M-4,-12 L-4,-5" stroke="white" stroke-width="2" stroke-linecap="round" />
      <path d="M7,-12 L7,8" stroke="white" stroke-width="2" stroke-linecap="round" />
      <path d="M3,-12 C3,-12 7,-12 7,-12 C7,-12 11,-12 11,-5 C11,-5 7,-5 7,-5" stroke="white" stroke-width="2" stroke-linecap="round" fill="none" />
    </g>
    <text x="0" y="60" font-family="Arial, sans-serif" font-size="14" text-anchor="middle" font-weight="bold">Restaurants</text>
  </g>
</svg>
